# xmcd
#
# Track frame offsets:
#	150
#	21660
#	38711
#	56040
#	73259
#	85943
#	109099
#	122383
#	136738
#	154265
#	187178
#	208185
#
# Disc length: 3136 seconds
# Revision: 0
# Processed by: cddbd v1.5.2PL0 Copyright (c) Steve Scherf et al.
# Submitted via: dBpowerAMP V12.0
#
DISCID=b00c3e0c
DTITLE=Various Artist - Ways Of The World
DYEAR=2019
DGENRE=Bluegrass
TTITLE0=David Grier feat. Andrea Zonn - Ways Of The World
TTITLE1=David Grier - The Curmudgeon's Gait
TTITLE2=David Grier feat. Tim O'Brien - Dust Bowl Dream
TTITLE3=David Grier - Farewell To Redboots
TTITLE4=David Grier feat. Shad Cobb and Mike Compton - She's Gone
TTITLE5=David Grier - Everybody Loves Crazy
TTITLE6=David Grier - Billy In The Lowground
TTITLE7=David Grier feat. Shad Cobb - Dead Flowers
TTITLE8=David Grier - Waiting On Daddy's Money
TTITLE9=David Grier - Crossing Salt Creek/Salt Creek
TTITLE10=David Grier feat. Maura O'Connell - She Came From The Mountains
TTITLE11=David Grier - Let's Think Why
EXTD=
EXTT0=
EXTT1=
EXTT2=
EXTT3=
EXTT4=
EXTT5=
EXTT6=
EXTT7=
EXTT8=
EXTT9=
EXTT10=
EXTT11=
PLAYORDER=
